<?xml version="1.0" standalone="no"?>
<!DOCTYPE svg PUBLIC "-//W3C//DTD SVG 20010904//EN"
 "http://www.w3.org/TR/2001/REC-SVG-20010904/DTD/svg10.dtd">
<svg version="1.0" xmlns="http://www.w3.org/2000/svg"
 width="400.000000pt" height="400.000000pt" viewBox="0 0 400.000000 400.000000"
 preserveAspectRatio="xMidYMid meet">

<g transform="translate(0.000000,400.000000) scale(0.100000,-0.100000)"
fill="#000000" stroke="none">
<path d="M2147 2878 c-4 -314 -7 -667 -7 -784 0 -117 -4 -215 -9 -218 -5 -3
-21 13 -37 37 -90 137 -263 261 -446 321 -174 56 -351 55 -532 -5 -146 -48
-219 -93 -321 -194 -185 -183 -265 -371 -265 -618 0 -153 22 -253 80 -372 145
-294 377 -454 710 -487 109 -11 126 -10 218 9 337 71 557 263 671 586 l36 102
3 1098 2 1097 -48 0 -49 0 -6 -572z m-587 -735 c218 -53 392 -197 503 -418 97
-195 87 -487 -23 -680 -140 -244 -385 -386 -665 -387 -137 0 -229 23 -358 88
-73 38 -109 64 -172 129 -142 144 -204 285 -215 490 -6 105 -3 132 17 214 67
275 238 462 503 551 124 42 272 47 410 13z"/>
<path d="M2076 639 c-15 -22 -26 -43 -23 -45 9 -10 538 -19 955 -16 l452 2 0
50 0 50 -679 0 -678 0 -27 -41z"/>
</g>
</svg>
