<svg width="512" height="485" viewBox="0 0 512 485" fill="none" xmlns="http://www.w3.org/2000/svg">
<mask id="mask0_106_66" style="mask-type:luminance" maskUnits="userSpaceOnUse" x="-3" y="0" width="515" height="485">
<path d="M512 0H-3V485H512V0Z" fill="white"/>
</mask>
<g mask="url(#mask0_106_66)">
<path d="M2.2429 308.673C7.2894 270.673 1.99476 310.066 2.2429 308.673C4.7424 289.852 13.508 275.621 23.7546 259.478C46.9821 222.886 79.8878 200.433 122.758 193.198C129.828 192.005 136.901 191.59 144 190.5C156 190.5 164.683 191.945 174.783 193.859C190.645 196.866 205.73 202.097 219.221 210.794C229.753 217.584 239.297 225.907 249.276 233.556C250.026 234.131 250.738 234.755 251.469 235.357C252 235.257 252.532 235.157 253.064 235.056C253.064 157.017 253.064 78.9769 253.058 0.468615C266.072 5.96046e-08 279.093 0 292.582 0C293.131 7.6547 293.279 15.3094 293.28 22.9641C293.296 130.706 293.551 238.449 293.061 346.188C292.969 366.391 287.04 385.848 277.778 403.986C261.77 435.336 237.552 458.263 205.362 472.301C195.144 476.756 183.996 479.073 173.291 482.426C171.606 482.954 173.542 482.221 172.242 483.173C157.934 485.92 134.743 485.674 118.064 482.253C120.059 482.662 116.067 481.24 118.064 482.253C80.0525 474.455 49.8515 454.606 27.1066 423.311C15.0183 406.678 6.08063 383.89 2.2429 363.673C2.2429 363.673 -2.80362 346.673 2.2429 308.673ZM249.06 367.34C250.4 356.997 252.724 346.669 252.893 336.306C253.356 307.887 242.01 283.735 222.603 263.709C201.948 242.396 176.543 231.21 146.339 231.693C111.936 232.243 83.2634 245.123 62.4298 272.459C35.3204 308.029 32.3397 347.25 51.672 386.941C71.7372 428.138 117.645 449.68 160.425 443.612C205.204 437.26 234.382 410.892 249.06 367.34Z" fill="black"/>
<path d="M247.057 480.968C246.618 481.01 246.178 481.053 245.222 480.799C244.936 479.146 244.838 477.607 245.475 476.472C246.4 474.829 247.856 473.478 249.086 472.002C249.086 472.002 249.075 471.964 249.415 471.942C250.56 471.024 251.364 470.127 252.169 469.231C252.169 469.231 252.263 469.101 252.68 469.082C255.45 466.898 257.803 464.732 260.157 462.567C260.157 462.567 260.534 462.245 261.016 462.055C261.786 461.442 262.076 461.02 262.365 460.598C262.365 460.598 262.446 460.427 262.782 460.42C263.459 460.116 263.8 459.817 264.141 459.519C264.141 459.519 264.398 459.164 264.92 458.991C266.313 457.923 267.184 457.028 268.056 456.133C268.056 456.133 268.066 456.158 268.346 456.059C269.024 455.52 269.423 455.08 269.821 454.64C269.821 454.64 269.966 454.369 270.463 454.276C272.685 452.658 274.409 451.134 276.134 449.61C276.134 449.61 276.37 449.252 276.931 449.112C285.118 442.616 294.281 444.162 303.115 444.158C364.583 444.135 426.051 444.138 487.519 444.149C496.013 444.15 504.506 444.243 513 444.293C513 455.846 513 467.399 512.533 479.456C510.235 479.976 508.404 480.007 506.573 480.007C422.672 480.003 338.771 479.987 254.87 480.03C252.266 480.032 249.661 480.642 247.057 480.968Z" fill="black"/>
<path d="M239 480.555C241.277 479.198 243.955 477.341 246.632 477.337C332.886 477.205 419.139 477.253 505.393 477.266C507.275 477.267 509.157 477.174 511.52 477C512 478.213 512 479.55 512 481.89C507.747 482.334 503.493 481.293 499.24 481.287C413.824 481.176 328.408 481.185 242.992 481.158C241.795 481.157 240.597 481.003 239 480.555Z" fill="black"/>
<path d="M512 444.909C503.466 445.411 494.932 445.244 486.398 445.242C424.636 445.222 362.874 445.217 301.113 445.259C292.236 445.265 283.03 442.488 275 454C278.114 445.703 282.475 441.974 288.669 442C362.801 442.317 436.934 442.187 511.533 442.061C512 442.738 512 443.527 512 444.909Z" fill="black"/>
<path d="M275.792 449.532C274.343 450.921 272.618 452.463 270.535 454.032C271.957 452.601 273.736 451.143 275.792 449.532Z" fill="#9B865C"/>
<path d="M269.476 454.58C269.355 454.912 268.956 455.357 268.267 455.894C268.383 455.554 268.79 455.123 269.476 454.58Z" fill="#9B865C"/>
<path d="M282.171 444L290 481H237L282.171 444Z" fill="black"/>
</g>
</svg>
